<?xml version="1.0" standalone="no"?>
<!DOCTYPE svg PUBLIC "-//W3C//DTD SVG 20010904//EN"
 "http://www.w3.org/TR/2001/REC-SVG-20010904/DTD/svg10.dtd">
<svg version="1.0" xmlns="http://www.w3.org/2000/svg"
 width="434.000000pt" height="434.000000pt" viewBox="0 0 434.000000 434.000000"
 preserveAspectRatio="xMidYMid meet">
<metadata>
Created by potrace 1.14, written by Peter Selinger 2001-2017
</metadata>
<g transform="translate(0.000000,434.000000) scale(0.100000,-0.100000)"
fill="#000000" stroke="none">
<path d="M1926 4284 c-113 -15 -259 -41 -296 -54 -14 -5 -59 -19 -100 -31
-100 -29 -265 -99 -370 -156 -391 -211 -716 -551 -903 -944 -81 -171 -109
-247 -152 -419 -125 -497 -52 -1070 193 -1515 45 -81 149 -246 161 -255 4 -3
14 -14 22 -26 58 -85 262 -295 354 -366 31 -24 91 -67 133 -95 43 -29 82 -56
87 -60 56 -43 348 -180 420 -198 6 -1 18 -5 28 -8 21 -8 51 -18 54 -18 2 0 17
-5 35 -10 281 -83 670 -101 961 -44 15 3 38 7 51 9 49 9 222 59 286 82 335
126 625 322 849 575 98 110 116 131 138 166 9 15 20 30 24 33 16 12 140 225
179 306 69 145 143 364 165 489 7 41 11 61 20 105 19 97 26 405 12 545 -15
154 -61 354 -116 502 -34 92 -99 241 -116 263 -6 8 -21 35 -34 60 -113 215
-349 485 -561 644 -30 23 -56 44 -58 49 -2 4 -7 7 -12 7 -4 0 -39 20 -77 45
-227 151 -551 272 -833 311 -176 25 -389 28 -544 8z m384 -239 c106 -9 149
-14 200 -26 25 -5 56 -11 70 -13 14 -2 32 -6 40 -9 11 -3 152 -48 200 -62 81
-25 278 -127 385 -200 280 -189 491 -428 638 -721 75 -149 140 -339 163 -474
3 -14 9 -48 15 -76 25 -127 27 -403 4 -544 -2 -14 -7 -45 -10 -70 -14 -99 -68
-284 -117 -400 -49 -116 -193 -369 -227 -400 -3 -3 -24 -27 -45 -55 -52 -66
-228 -244 -270 -273 -18 -12 -42 -31 -53 -42 -44 -40 -209 -142 -316 -194
-105 -51 -317 -132 -317 -120 0 2 -8 0 -19 -5 -10 -6 -33 -13 -52 -16 -19 -3
-43 -8 -53 -12 -11 -3 -34 -7 -50 -9 -17 -2 -42 -6 -56 -9 -55 -11 -171 -19
-285 -17 -107 1 -236 8 -242 13 -2 1 -11 2 -20 3 -26 3 -112 20 -130 26 -5 1
-11 2 -15 1 -14 -2 -243 70 -252 80 -6 5 -16 9 -24 9 -26 0 -250 117 -342 179
-228 152 -438 371 -572 596 -73 122 -195 400 -186 425 1 3 -4 15 -10 26 -6 12
-14 36 -17 55 -3 19 -8 42 -11 51 -13 44 -26 127 -39 258 -5 55 -6 250 0 305
7 76 15 140 20 165 3 14 8 39 10 55 3 17 8 38 11 47 5 16 10 38 20 85 10 51
69 205 113 298 145 305 380 577 663 766 135 90 350 189 513 237 65 19 93 25
155 37 14 3 36 7 50 10 47 10 115 16 235 22 66 3 122 7 123 8 2 2 9 2 15 0 7
-2 46 -6 87 -10z"/>
<path d="M2050 3791 c-114 -31 -176 -71 -310 -197 -30 -29 -69 -65 -86 -80
-17 -16 -75 -69 -129 -119 -54 -49 -110 -101 -125 -115 -15 -14 -74 -68 -131
-121 -57 -53 -117 -108 -134 -123 -16 -15 -70 -64 -119 -109 -111 -103 -122
-113 -236 -217 -206 -188 -267 -267 -300 -390 -22 -80 -22 -210 0 -296 19 -72
83 -209 113 -239 7 -7 24 -26 38 -42 13 -16 49 -48 78 -72 240 -189 563 -181
772 20 19 19 82 77 138 129 57 52 116 106 131 120 15 14 69 63 120 110 51 47
105 96 119 110 14 14 78 72 141 130 105 95 169 154 254 235 18 17 72 66 121
110 249 224 302 312 310 510 8 188 -51 339 -184 473 -157 159 -387 227 -581
173z m74 -371 c5 -18 58 -269 60 -287 3 -22 16 -27 17 -7 0 10 2 26 4 34 1 8
8 42 14 75 20 105 22 118 35 171 7 31 8 31 59 29 29 -2 54 -4 57 -4 8 -2 6
-516 -3 -522 -7 -5 -33 -5 -69 0 -4 1 -7 71 -6 156 0 86 -2 158 -5 161 -2 3
-9 -19 -15 -48 -6 -29 -13 -64 -16 -78 -4 -14 -9 -41 -12 -60 -3 -19 -7 -43
-10 -52 -3 -10 -7 -30 -10 -45 -3 -15 -7 -30 -10 -34 -6 -10 -46 -2 -53 10 -3
5 -19 78 -36 161 -16 83 -32 145 -35 136 -3 -8 -4 -81 -3 -161 0 -81 -3 -145
-8 -146 -12 -2 -45 -2 -61 0 -20 2 -19 514 1 522 29 11 101 4 105 -11z m-1065
-1169 c0 -113 0 -214 0 -223 1 -15 11 -18 70 -18 60 0 69 -2 74 -20 3 -11 1
-22 -4 -25 -4 -3 -6 -11 -3 -18 4 -10 -20 -13 -106 -14 l-110 -1 0 263 c0 288
-2 277 58 267 l22 -4 -1 -207z"/>
<path d="M3170 2823 c-130 -26 -203 -68 -330 -189 -30 -29 -65 -61 -76 -71
-12 -10 -68 -61 -124 -113 -131 -121 -139 -128 -250 -230 -52 -47 -108 -98
-125 -115 -47 -44 -217 -200 -241 -222 -59 -51 -247 -227 -309 -288 -295 -294
-196 -779 200 -977 95 -48 260 -73 350 -54 90 19 182 57 232 96 25 20 169 149
217 195 17 17 85 80 151 140 66 61 127 117 136 125 15 14 183 170 238 219 14
13 73 67 130 120 126 116 143 133 212 195 251 226 312 326 321 526 17 380
-368 718 -732 643z m157 -378 c35 -21 42 -31 53 -88 9 -44 -5 -65 -42 -61 -12
1 -26 3 -30 3 -4 1 -6 15 -4 31 5 42 -34 74 -70 58 -28 -13 -26 0 -28 -197 -1
-176 6 -198 58 -185 32 8 35 13 39 74 5 58 0 70 -28 70 -19 0 -22 5 -21 35 0
19 6 35 11 36 47 5 107 3 111 -3 6 -10 7 -169 1 -195 -9 -34 -35 -69 -63 -81
-36 -17 -101 -15 -133 4 -51 30 -55 47 -58 224 -4 205 -1 225 43 265 28 26 41
31 81 30 29 0 61 -8 80 -20z m-1043 -772 c179 -41 336 -200 377 -380 61 -272
-114 -545 -389 -607 -166 -38 -337 12 -459 133 -101 99 -151 220 -151 362 0
328 302 567 622 492z"/>
</g>
</svg>
